PathFileType	4	(X/Y/Z)	C:\Users\italobelli\Desktop\GitHub\PTbot_officialCBL\Personal_Results\ABD23_noisy2.trc
DataRate	CameraRate	NumFrames	NumMarkers	Units	OrigDataRate	OrigDataStartFrame	OrigNumFrames
105.444444	105.444444	51	9	m	105.444444	476	950
Frame#	Time		gu		centelbow		EpL		centpxt8		centijc7		ij		ts		aa		ai
			X1	Y1	Z1	X2	Y2	Z2	X3	Y3	Z3	X4	Y4	Z4	X5	Y5	Z5	X6	Y6	Z6	X7	Y7	Z7	X8	Y8	Z8	X9	Y9	Z9

476	4.5047	-0.098914	0.067086	0.10273	-0.018488	0.20929	0.27373	-0.036362	0.23067	0.25753	-0.046816	-0.15316	-0.008669	-0.046816	0.031938	-0.008669	0	0	0	-0.14069	-0.011501	0.037497	-0.13842	0.082099	0.11137	-0.13589	-0.077663	0.1296
477	4.5142	-0.098915	0.067086	0.10294	-0.018851	0.20765	0.27512	-0.036641	0.22921	0.25906	-0.046816	-0.15316	-0.008669	-0.046816	0.031938	-0.008669	0	0	0	-0.14058	-0.011333	0.037242	-0.1384	0.081886	0.11158	-0.13588	-0.077938	0.12899
478	4.5237	-0.098921	0.06707	0.10316	-0.019231	0.20595	0.27654	-0.036934	0.22768	0.26062	-0.046816	-0.15316	-0.008669	-0.046816	0.031938	-0.008669	0	0	0	-0.14048	-0.011159	0.036975	-0.13839	0.08166	0.11179	-0.13588	-0.078223	0.12836
479	4.5332	-0.098933	0.067037	0.10339	-0.019625	0.20418	0.27798	-0.037242	0.2261	0.26221	-0.046816	-0.15316	-0.008669	-0.046816	0.031938	-0.008669	0	0	0	-0.14038	-0.010977	0.036696	-0.13839	0.081424	0.112	-0.13587	-0.078516	0.1277
480	4.5427	-0.098951	0.066989	0.10363	-0.020033	0.20236	0.27945	-0.037563	0.22445	0.26384	-0.046816	-0.15316	-0.008669	-0.046816	0.031938	-0.008669	0	0	0	-0.14028	-0.01079	0.036406	-0.13839	0.081177	0.11221	-0.13587	-0.078817	0.12702
481	4.5522	-0.098973	0.066925	0.10387	-0.020456	0.20047	0.28094	-0.037896	0.22274	0.2655	-0.046816	-0.15316	-0.008669	-0.046816	0.031938	-0.008669	0	0	0	-0.14017	-0.010595	0.036106	-0.13839	0.08092	0.11243	-0.13586	-0.079126	0.12631
482	4.5616	-0.099001	0.066846	0.10413	-0.020892	0.19853	0.28245	-0.038243	0.22098	0.26719	-0.046816	-0.15316	-0.008669	-0.046816	0.031938	-0.008669	0	0	0	-0.14007	-0.010395	0.035795	-0.1384	0.080652	0.11264	-0.13585	-0.079441	0.12558
483	4.5711	-0.099033	0.066752	0.10439	-0.021341	0.19654	0.28399	-0.038601	0.21916	0.26891	-0.046816	-0.15316	-0.008669	-0.046816	0.031938	-0.008669	0	0	0	-0.13997	-0.010188	0.035475	-0.13841	0.080375	0.11286	-0.13585	-0.079763	0.12483
484	4.5806	-0.099069	0.066644	0.10467	-0.021803	0.19448	0.28554	-0.038971	0.21729	0.27065	-0.046816	-0.15316	-0.008669	-0.046816	0.031938	-0.008669	0	0	0	-0.13987	-0.0099759	0.035147	-0.13843	0.080088	0.11309	-0.13584	-0.080091	0.12405
485	4.5901	-0.09911	0.066522	0.10495	-0.022277	0.19238	0.28712	-0.039353	0.21536	0.27242	-0.046816	-0.15316	-0.008669	-0.046816	0.031938	-0.008669	0	0	0	-0.13977	-0.0097578	0.03481	-0.13845	0.079793	0.11331	-0.13583	-0.080425	0.12326
486	4.5996	-0.099155	0.066387	0.10524	-0.022762	0.19022	0.2887	-0.039745	0.21338	0.27421	-0.046816	-0.15316	-0.008669	-0.046816	0.031938	-0.008669	0	0	0	-0.13967	-0.0095342	0.034467	-0.13847	0.079488	0.11354	-0.13582	-0.080763	0.12245
487	4.6091	-0.099203	0.066239	0.10553	-0.023258	0.18802	0.29031	-0.040147	0.21136	0.27602	-0.046816	-0.15316	-0.008669	-0.046816	0.031938	-0.008669	0	0	0	-0.13957	-0.0093052	0.034116	-0.1385	0.079175	0.11377	-0.13581	-0.081106	0.12162
488	4.6185	-0.099255	0.066078	0.10584	-0.023765	0.18576	0.29193	-0.040559	0.20928	0.27785	-0.046816	-0.15316	-0.008669	-0.046816	0.031938	-0.008669	0	0	0	-0.13947	-0.009071	0.03376	-0.13853	0.078854	0.114	-0.13581	-0.081453	0.12077
489	4.628	-0.09931	0.065905	0.10615	-0.024282	0.18346	0.29356	-0.040981	0.20716	0.27969	-0.046816	-0.15316	-0.008669	-0.046816	0.031938	-0.008669	0	0	0	-0.13937	-0.0088318	0.033397	-0.13856	0.078525	0.11423	-0.1358	-0.081803	0.11991
490	4.6375	-0.099368	0.06572	0.10647	-0.024809	0.18111	0.2952	-0.041412	0.20499	0.28155	-0.046816	-0.15316	-0.008669	-0.046816	0.031938	-0.008669	0	0	0	-0.13927	-0.0085877	0.033031	-0.1386	0.078189	0.11446	-0.13579	-0.082155	0.11903
491	4.647	-0.099428	0.065524	0.10679	-0.025345	0.17872	0.29685	-0.041851	0.20277	0.28343	-0.046816	-0.15316	-0.008669	-0.046816	0.031938	-0.008669	0	0	0	-0.13917	-0.008339	0.03266	-0.13863	0.077845	0.1147	-0.13578	-0.08251	0.11813
492	4.6565	-0.099491	0.065316	0.10712	-0.025889	0.17629	0.29851	-0.042298	0.20051	0.28532	-0.046816	-0.15316	-0.008669	-0.046816	0.031938	-0.008669	0	0	0	-0.13907	-0.0080857	0.032285	-0.13867	0.077495	0.11494	-0.13577	-0.082867	0.11723
493	4.666	-0.099556	0.065098	0.10746	-0.026442	0.17382	0.30017	-0.042753	0.19822	0.28721	-0.046816	-0.15316	-0.008669	-0.046816	0.031938	-0.008669	0	0	0	-0.13898	-0.0078281	0.031907	-0.13872	0.077138	0.11518	-0.13576	-0.083225	0.11631
494	4.6754	-0.099623	0.064869	0.10781	-0.027002	0.1713	0.30184	-0.043215	0.19588	0.28912	-0.046816	-0.15316	-0.008669	-0.046816	0.031938	-0.008669	0	0	0	-0.13888	-0.0075663	0.031528	-0.13876	0.076775	0.11542	-0.13575	-0.083584	0.11538
495	4.6849	-0.099692	0.064631	0.10816	-0.027569	0.16875	0.30352	-0.043683	0.1935	0.29104	-0.046816	-0.15316	-0.008669	-0.046816	0.031938	-0.008669	0	0	0	-0.13878	-0.0073005	0.031146	-0.13881	0.076406	0.11566	-0.13574	-0.083943	0.11444
496	4.6944	-0.099763	0.064383	0.10851	-0.028143	0.16616	0.3052	-0.044158	0.19109	0.29296	-0.046816	-0.15316	-0.008669	-0.046816	0.031938	-0.008669	0	0	0	-0.13868	-0.0070309	0.030764	-0.13885	0.076032	0.11591	-0.13573	-0.084302	0.11348
497	4.7039	-0.099834	0.064126	0.10888	-0.028724	0.16354	0.30688	-0.044639	0.18864	0.29488	-0.046816	-0.15316	-0.008669	-0.046816	0.031938	-0.008669	0	0	0	-0.13859	-0.0067576	0.030381	-0.1389	0.075652	0.11616	-0.13572	-0.08466	0.11253
498	4.7134	-0.099907	0.063861	0.10924	-0.029309	0.16089	0.30856	-0.045125	0.18615	0.29681	-0.046816	-0.15316	-0.008669	-0.046816	0.031938	-0.008669	0	0	0	-0.13849	-0.0064809	0.029999	-0.13895	0.075267	0.11641	-0.1357	-0.085016	0.11156
499	4.7229	-0.09998	0.063587	0.10962	-0.029901	0.1582	0.31023	-0.045616	0.18363	0.29873	-0.046816	-0.15316	-0.008669	-0.046816	0.031938	-0.008669	0	0	0	-0.13839	-0.0062008	0.029617	-0.139	0.074878	0.11666	-0.13569	-0.085371	0.11059
500	4.7323	-0.10005	0.063305	0.10999	-0.030496	0.15549	0.31191	-0.046111	0.18109	0.30066	-0.046816	-0.15316	-0.008669	-0.046816	0.031938	-0.008669	0	0	0	-0.1383	-0.0059176	0.029237	-0.13905	0.074485	0.11691	-0.13568	-0.085723	0.10961
501	4.7418	-0.10013	0.063016	0.11037	-0.031096	0.15274	0.31358	-0.046611	0.17851	0.30258	-0.046816	-0.15316	-0.008669	-0.046816	0.031938	-0.008669	0	0	0	-0.1382	-0.0056314	0.028859	-0.1391	0.074088	0.11717	-0.13567	-0.086072	0.10862
502	4.7513	-0.1002	0.062719	0.11076	-0.0317	0.14997	0.31524	-0.047114	0.1759	0.3045	-0.046816	-0.15316	-0.008669	-0.046816	0.031938	-0.008669	0	0	0	-0.1381	-0.0053425	0.028484	-0.13915	0.073687	0.11742	-0.13566	-0.086418	0.10764
503	4.7608	-0.10028	0.062416	0.11115	-0.032307	0.14718	0.3169	-0.04762	0.17326	0.30641	-0.046816	-0.15316	-0.008669	-0.046816	0.031938	-0.008669	0	0	0	-0.13801	-0.0050508	0.028113	-0.1392	0.073283	0.11768	-0.13565	-0.08676	0.10665
504	4.7703	-0.10035	0.062107	0.11155	-0.032917	0.14436	0.31855	-0.048129	0.1706	0.30831	-0.046816	-0.15316	-0.008669	-0.046816	0.031938	-0.008669	0	0	0	-0.13791	-0.0047568	0.027745	-0.13925	0.072876	0.11794	-0.13563	-0.087097	0.10566
505	4.7798	-0.10042	0.061791	0.11194	-0.033529	0.14151	0.32019	-0.048639	0.16792	0.31021	-0.046816	-0.15316	-0.008669	-0.046816	0.031938	-0.008669	0	0	0	-0.13781	-0.0044604	0.027382	-0.1393	0.072467	0.1182	-0.13562	-0.087429	0.10466
506	4.7893	-0.10049	0.061471	0.11235	-0.034143	0.13865	0.32181	-0.049152	0.16521	0.31209	-0.046816	-0.15316	-0.008669	-0.046816	0.031938	-0.008669	0	0	0	-0.13772	-0.0041619	0.027025	-0.13935	0.072055	0.11846	-0.13561	-0.087756	0.10367
507	4.7987	-0.10056	0.061145	0.11275	-0.034758	0.13577	0.32343	-0.049666	0.16248	0.31396	-0.046816	-0.15316	-0.008669	-0.046816	0.031938	-0.008669	0	0	0	-0.13762	-0.0038615	0.026674	-0.13939	0.071641	0.11873	-0.1356	-0.088077	0.10268
508	4.8082	-0.10063	0.060814	0.11316	-0.035374	0.13287	0.32503	-0.050181	0.15973	0.31581	-0.046816	-0.15316	-0.008669	-0.046816	0.031938	-0.008669	0	0	0	-0.13753	-0.0035593	0.026329	-0.13944	0.071225	0.11899	-0.13558	-0.088391	0.10169
509	4.8177	-0.1007	0.060479	0.11357	-0.03599	0.12995	0.32661	-0.050696	0.15696	0.31765	-0.046816	-0.15316	-0.008669	-0.046816	0.031938	-0.008669	0	0	0	-0.13743	-0.0032555	0.025992	-0.13949	0.070809	0.11926	-0.13557	-0.088698	0.10071
510	4.8272	-0.10077	0.06014	0.11398	-0.036606	0.12702	0.32818	-0.051211	0.15418	0.31947	-0.046816	-0.15316	-0.008669	-0.046816	0.031938	-0.008669	0	0	0	-0.13734	-0.0029503	0.025662	-0.13953	0.070391	0.11952	-0.13556	-0.088997	0.099725
511	4.8367	-0.10083	0.059797	0.1144	-0.037221	0.12408	0.32973	-0.051726	0.15138	0.32127	-0.046816	-0.15316	-0.008669	-0.046816	0.031938	-0.008669	0	0	0	-0.13724	-0.0026438	0.025341	-0.13957	0.069973	0.11979	-0.13555	-0.089288	0.098749
512	4.8462	-0.10089	0.059452	0.11482	-0.037835	0.12112	0.33126	-0.052239	0.14856	0.32305	-0.046816	-0.15316	-0.008669	-0.046816	0.031938	-0.008669	0	0	0	-0.13714	-0.0023362	0.02503	-0.13961	0.069554	0.12006	-0.13553	-0.08957	0.097778
513	4.8556	-0.10095	0.059103	0.11524	-0.038447	0.11816	0.33276	-0.052752	0.14573	0.32481	-0.046816	-0.15316	-0.008669	-0.046816	0.031938	-0.008669	0	0	0	-0.13705	-0.0020277	0.024728	-0.13965	0.069135	0.12034	-0.13552	-0.089843	0.096815
514	4.8651	-0.101	0.058752	0.11566	-0.039058	0.11518	0.33425	-0.053262	0.14289	0.32654	-0.046816	-0.15316	-0.008669	-0.046816	0.031938	-0.008669	0	0	0	-0.13695	-0.0017184	0.024437	-0.13968	0.068717	0.12061	-0.13551	-0.090107	0.09586
515	4.8746	-0.10106	0.0584	0.11609	-0.039665	0.1122	0.33571	-0.05377	0.14004	0.32824	-0.046816	-0.15316	-0.008669	-0.046816	0.031938	-0.008669	0	0	0	-0.13686	-0.0014086	0.024156	-0.13971	0.068299	0.12088	-0.1355	-0.09036	0.094913
516	4.8841	-0.1011	0.058045	0.11651	-0.04027	0.10922	0.33715	-0.054276	0.13718	0.32992	-0.046816	-0.15316	-0.008669	-0.046816	0.031938	-0.008669	0	0	0	-0.13676	-0.0010983	0.023888	-0.13974	0.067882	0.12116	-0.13548	-0.090602	0.093977
517	4.8936	-0.10115	0.05769	0.11694	-0.040871	0.10623	0.33855	-0.054778	0.13432	0.33156	-0.046816	-0.15316	-0.008669	-0.046816	0.031938	-0.008669	0	0	0	-0.13666	-0.00078784	0.023632	-0.13977	0.067467	0.12143	-0.13547	-0.090833	0.093051
518	4.9031	-0.10119	0.057333	0.11736	-0.041468	0.10324	0.33993	-0.055276	0.13145	0.33318	-0.046816	-0.15316	-0.008669	-0.046816	0.031938	-0.008669	0	0	0	-0.13657	-0.00047729	0.023388	-0.13979	0.067053	0.12171	-0.13546	-0.091053	0.092137
519	4.9125	-0.10123	0.056977	0.11779	-0.04206	0.10024	0.34129	-0.05577	0.12857	0.33476	-0.046816	-0.15316	-0.008669	-0.046816	0.031938	-0.008669	0	0	0	-0.13647	-0.00016684	0.023159	-0.13981	0.066641	0.12199	-0.13544	-0.091259	0.091236
520	4.922	-0.10126	0.05662	0.11822	-0.042647	0.097252	0.34261	-0.05626	0.12569	0.3363	-0.046816	-0.15316	-0.008669	-0.046816	0.031938	-0.008669	0	0	0	-0.13638	0.00014332	0.022944	-0.13983	0.066231	0.12227	-0.13543	-0.091453	0.090348
521	4.9315	-0.10129	0.056264	0.11865	-0.043228	0.094262	0.34389	-0.056745	0.12281	0.33781	-0.046816	-0.15316	-0.008669	-0.046816	0.031938	-0.008669	0	0	0	-0.13628	0.00045304	0.022744	-0.13984	0.065824	0.12255	-0.13542	-0.091634	0.089476
522	4.941	-0.10131	0.055909	0.11908	-0.043804	0.091277	0.34515	-0.057224	0.11993	0.33928	-0.046816	-0.15316	-0.008669	-0.046816	0.031938	-0.008669	0	0	0	-0.13618	0.00076214	0.022559	-0.13984	0.06542	0.12283	-0.13541	-0.091801	0.088619
523	4.9505	-0.10133	0.055554	0.11951	-0.044373	0.088296	0.34636	-0.057698	0.11705	0.34071	-0.046816	-0.15316	-0.008669	-0.046816	0.031938	-0.008669	0	0	0	-0.13609	0.0010705	0.02239	-0.13985	0.065019	0.12311	-0.13539	-0.091953	0.087778
524	4.96	-0.10134	0.055202	0.11993	-0.044935	0.085323	0.34755	-0.058165	0.11417	0.3421	-0.046816	-0.15316	-0.008669	-0.046816	0.031938	-0.008669	0	0	0	-0.13599	0.0013778	0.022239	-0.13984	0.064621	0.1234	-0.13538	-0.09209	0.086955
525	4.9694	-0.10135	0.054851	0.12036	-0.045489	0.082358	0.34869	-0.058625	0.1113	0.34345	-0.046816	-0.15316	-0.008669	-0.046816	0.031938	-0.008669	0	0	0	-0.13589	0.001684	0.022105	-0.13984	0.064228	0.12368	-0.13537	-0.092212	0.086151
526	4.9789	-0.10135	0.054503	0.12079	-0.046035	0.079404	0.34979	-0.059078	0.10843	0.34475	-0.046816	-0.15316	-0.008669	-0.046816	0.031938	-0.008669	0	0	0	-0.1358	0.0019889	0.021989	-0.13983	0.063838	0.12396	-0.13536	-0.092317	0.085367
